<mxfile host="65bd71144e">
    <diagram id="t2lpJ87Xkb2CPbJLUio3" name="Page-1">
        <mxGraphModel dx="2165" dy="614" grid="1" gridSize="10" guides="1" tooltips="1" connect="1" arrows="1" fold="1" page="1" pageScale="1" pageWidth="850" pageHeight="1100" math="0" shadow="0">
            <root>
                <mxCell id="0"/>
                <mxCell id="1" parent="0"/>
                <mxCell id="3" value="Zvíře" style="swimlane;fontStyle=0;childLayout=stackLayout;horizontal=1;startSize=26;horizontalStack=0;resizeParent=1;resizeParentMax=0;resizeLast=0;collapsible=1;marginBottom=0;" parent="1" vertex="1">
                    <mxGeometry x="-845" y="251" width="200" height="390" as="geometry">
                        <mxRectangle x="30" y="310" width="200" height="26" as="alternateBounds"/>
                    </mxGeometry>
                </mxCell>
                <mxCell id="4" value="&lt;&lt;PK&gt;&gt;  Evidenční číslo" style="text;strokeColor=none;fillColor=none;align=left;verticalAlign=top;spacingLeft=4;spacingRight=4;overflow=hidden;rotatable=0;points=[[0,0.5],[1,0.5]];portConstraint=eastwest;" parent="3" vertex="1">
                    <mxGeometry y="26" width="200" height="26" as="geometry"/>
                </mxCell>
                <mxCell id="6" value="Jméno" style="text;strokeColor=none;fillColor=none;align=left;verticalAlign=top;spacingLeft=4;spacingRight=4;overflow=hidden;rotatable=0;points=[[0,0.5],[1,0.5]];portConstraint=eastwest;" parent="3" vertex="1">
                    <mxGeometry y="52" width="200" height="26" as="geometry"/>
                </mxCell>
                <mxCell id="5" value="Druh" style="text;strokeColor=none;fillColor=none;align=left;verticalAlign=top;spacingLeft=4;spacingRight=4;overflow=hidden;rotatable=0;points=[[0,0.5],[1,0.5]];portConstraint=eastwest;" parent="3" vertex="1">
                    <mxGeometry y="78" width="200" height="26" as="geometry"/>
                </mxCell>
                <mxCell id="167" value="Plemeno" style="text;strokeColor=none;fillColor=none;align=left;verticalAlign=top;spacingLeft=4;spacingRight=4;overflow=hidden;rotatable=0;points=[[0,0.5],[1,0.5]];portConstraint=eastwest;" parent="3" vertex="1">
                    <mxGeometry y="104" width="200" height="26" as="geometry"/>
                </mxCell>
                <mxCell id="7" value="Věk" style="text;strokeColor=none;fillColor=none;align=left;verticalAlign=top;spacingLeft=4;spacingRight=4;overflow=hidden;rotatable=0;points=[[0,0.5],[1,0.5]];portConstraint=eastwest;" parent="3" vertex="1">
                    <mxGeometry y="130" width="200" height="26" as="geometry"/>
                </mxCell>
                <mxCell id="146" value="Pohlaví" style="text;strokeColor=none;fillColor=none;align=left;verticalAlign=top;spacingLeft=4;spacingRight=4;overflow=hidden;rotatable=0;points=[[0,0.5],[1,0.5]];portConstraint=eastwest;" parent="3" vertex="1">
                    <mxGeometry y="156" width="200" height="26" as="geometry"/>
                </mxCell>
                <mxCell id="8" value="Fotky" style="text;strokeColor=none;fillColor=none;align=left;verticalAlign=top;spacingLeft=4;spacingRight=4;overflow=hidden;rotatable=0;points=[[0,0.5],[1,0.5]];portConstraint=eastwest;" parent="3" vertex="1">
                    <mxGeometry y="182" width="200" height="26" as="geometry"/>
                </mxCell>
                <mxCell id="9" value="Barva" style="text;strokeColor=none;fillColor=none;align=left;verticalAlign=top;spacingLeft=4;spacingRight=4;overflow=hidden;rotatable=0;points=[[0,0.5],[1,0.5]];portConstraint=eastwest;" parent="3" vertex="1">
                    <mxGeometry y="208" width="200" height="26" as="geometry"/>
                </mxCell>
                <mxCell id="147" value="Váha" style="text;strokeColor=none;fillColor=none;align=left;verticalAlign=top;spacingLeft=4;spacingRight=4;overflow=hidden;rotatable=0;points=[[0,0.5],[1,0.5]];portConstraint=eastwest;" parent="3" vertex="1">
                    <mxGeometry y="234" width="200" height="26" as="geometry"/>
                </mxCell>
                <mxCell id="148" value="Výška" style="text;strokeColor=none;fillColor=none;align=left;verticalAlign=top;spacingLeft=4;spacingRight=4;overflow=hidden;rotatable=0;points=[[0,0.5],[1,0.5]];portConstraint=eastwest;" parent="3" vertex="1">
                    <mxGeometry y="260" width="200" height="26" as="geometry"/>
                </mxCell>
                <mxCell id="149" value="Datum nalezení" style="text;strokeColor=none;fillColor=none;align=left;verticalAlign=top;spacingLeft=4;spacingRight=4;overflow=hidden;rotatable=0;points=[[0,0.5],[1,0.5]];portConstraint=eastwest;" parent="3" vertex="1">
                    <mxGeometry y="286" width="200" height="26" as="geometry"/>
                </mxCell>
                <mxCell id="150" value="Místo nalezení" style="text;strokeColor=none;fillColor=none;align=left;verticalAlign=top;spacingLeft=4;spacingRight=4;overflow=hidden;rotatable=0;points=[[0,0.5],[1,0.5]];portConstraint=eastwest;" parent="3" vertex="1">
                    <mxGeometry y="312" width="200" height="26" as="geometry"/>
                </mxCell>
                <mxCell id="151" value="Čip" style="text;strokeColor=none;fillColor=none;align=left;verticalAlign=top;spacingLeft=4;spacingRight=4;overflow=hidden;rotatable=0;points=[[0,0.5],[1,0.5]];portConstraint=eastwest;" parent="3" vertex="1">
                    <mxGeometry y="338" width="200" height="26" as="geometry"/>
                </mxCell>
                <mxCell id="152" value="Popis" style="text;strokeColor=none;fillColor=none;align=left;verticalAlign=top;spacingLeft=4;spacingRight=4;overflow=hidden;rotatable=0;points=[[0,0.5],[1,0.5]];portConstraint=eastwest;" parent="3" vertex="1">
                    <mxGeometry y="364" width="200" height="26" as="geometry"/>
                </mxCell>
                <mxCell id="43" value="Uživatel" style="swimlane;fontStyle=0;childLayout=stackLayout;horizontal=1;startSize=26;horizontalStack=0;resizeParent=1;resizeParentMax=0;resizeLast=0;collapsible=1;marginBottom=0;" parent="1" vertex="1">
                    <mxGeometry x="-525" y="481" width="200" height="306" as="geometry">
                        <mxRectangle x="30" y="310" width="200" height="26" as="alternateBounds"/>
                    </mxGeometry>
                </mxCell>
                <mxCell id="207" value="&lt;&lt;PK&gt;&gt;  ID" style="text;strokeColor=none;fillColor=none;align=left;verticalAlign=top;spacingLeft=4;spacingRight=4;overflow=hidden;rotatable=0;points=[[0,0.5],[1,0.5]];portConstraint=eastwest;" parent="43" vertex="1">
                    <mxGeometry y="26" width="200" height="26" as="geometry"/>
                </mxCell>
                <mxCell id="46" value="Login" style="text;strokeColor=none;fillColor=none;align=left;verticalAlign=top;spacingLeft=4;spacingRight=4;overflow=hidden;rotatable=0;points=[[0,0.5],[1,0.5]];portConstraint=eastwest;" parent="43" vertex="1">
                    <mxGeometry y="52" width="200" height="26" as="geometry"/>
                </mxCell>
                <mxCell id="47" value="Password" style="text;strokeColor=none;fillColor=none;align=left;verticalAlign=top;spacingLeft=4;spacingRight=4;overflow=hidden;rotatable=0;points=[[0,0.5],[1,0.5]];portConstraint=eastwest;" parent="43" vertex="1">
                    <mxGeometry y="78" width="200" height="26" as="geometry"/>
                </mxCell>
                <mxCell id="187" value="Overenie" style="text;strokeColor=none;fillColor=none;align=left;verticalAlign=top;spacingLeft=4;spacingRight=4;overflow=hidden;rotatable=0;points=[[0,0.5],[1,0.5]];portConstraint=eastwest;" parent="43" vertex="1">
                    <mxGeometry y="104" width="200" height="26" as="geometry"/>
                </mxCell>
                <mxCell id="190" value="Jmeno" style="text;strokeColor=none;fillColor=none;align=left;verticalAlign=top;spacingLeft=4;spacingRight=4;overflow=hidden;rotatable=0;points=[[0,0.5],[1,0.5]];portConstraint=eastwest;" parent="43" vertex="1">
                    <mxGeometry y="130" width="200" height="26" as="geometry"/>
                </mxCell>
                <mxCell id="194" value="Přijmení" style="text;strokeColor=none;fillColor=none;align=left;verticalAlign=top;spacingLeft=4;spacingRight=4;overflow=hidden;rotatable=0;points=[[0,0.5],[1,0.5]];portConstraint=eastwest;" parent="43" vertex="1">
                    <mxGeometry y="156" width="200" height="30" as="geometry"/>
                </mxCell>
                <mxCell id="197" value="Telefonní číslo" style="text;strokeColor=none;fillColor=none;align=left;verticalAlign=top;spacingLeft=4;spacingRight=4;overflow=hidden;rotatable=0;points=[[0,0.5],[1,0.5]];portConstraint=eastwest;" parent="43" vertex="1">
                    <mxGeometry y="186" width="200" height="30" as="geometry"/>
                </mxCell>
                <mxCell id="198" value="Kontaktní adresa" style="text;strokeColor=none;fillColor=none;align=left;verticalAlign=top;spacingLeft=4;spacingRight=4;overflow=hidden;rotatable=0;points=[[0,0.5],[1,0.5]];portConstraint=eastwest;" parent="43" vertex="1">
                    <mxGeometry y="216" width="200" height="30" as="geometry"/>
                </mxCell>
                <mxCell id="199" value="Emailová adresa" style="text;strokeColor=none;fillColor=none;align=left;verticalAlign=top;spacingLeft=4;spacingRight=4;overflow=hidden;rotatable=0;points=[[0,0.5],[1,0.5]];portConstraint=eastwest;" parent="43" vertex="1">
                    <mxGeometry y="246" width="200" height="30" as="geometry"/>
                </mxCell>
                <mxCell id="201" value="Hodnocení" style="text;strokeColor=none;fillColor=none;align=left;verticalAlign=top;spacingLeft=4;spacingRight=4;overflow=hidden;rotatable=0;points=[[0,0.5],[1,0.5]];portConstraint=eastwest;" parent="43" vertex="1">
                    <mxGeometry y="276" width="200" height="30" as="geometry"/>
                </mxCell>
                <mxCell id="248" style="edgeStyle=none;html=1;endArrow=block;endFill=0;jumpSize=6;endSize=27;" parent="1" source="60" target="244" edge="1">
                    <mxGeometry relative="1" as="geometry"/>
                </mxCell>
                <mxCell id="60" value="Udalost" style="swimlane;fontStyle=0;childLayout=stackLayout;horizontal=1;startSize=26;horizontalStack=0;resizeParent=1;resizeParentMax=0;resizeLast=0;collapsible=1;marginBottom=0;" parent="1" vertex="1">
                    <mxGeometry x="-525" y="251" width="200" height="130" as="geometry">
                        <mxRectangle x="30" y="310" width="200" height="26" as="alternateBounds"/>
                    </mxGeometry>
                </mxCell>
                <mxCell id="61" value="&lt;&lt;PK&gt;&gt;  ID" style="text;strokeColor=none;fillColor=none;align=left;verticalAlign=top;spacingLeft=4;spacingRight=4;overflow=hidden;rotatable=0;points=[[0,0.5],[1,0.5]];portConstraint=eastwest;" parent="60" vertex="1">
                    <mxGeometry y="26" width="200" height="26" as="geometry"/>
                </mxCell>
                <mxCell id="62" value="Datum a cas" style="text;strokeColor=none;fillColor=none;align=left;verticalAlign=top;spacingLeft=4;spacingRight=4;overflow=hidden;rotatable=0;points=[[0,0.5],[1,0.5]];portConstraint=eastwest;" parent="60" vertex="1">
                    <mxGeometry y="52" width="200" height="26" as="geometry"/>
                </mxCell>
                <mxCell id="144" value="Doba trvania" style="text;strokeColor=none;fillColor=none;align=left;verticalAlign=top;spacingLeft=4;spacingRight=4;overflow=hidden;rotatable=0;points=[[0,0.5],[1,0.5]];portConstraint=eastwest;" parent="60" vertex="1">
                    <mxGeometry y="78" width="200" height="26" as="geometry"/>
                </mxCell>
                <mxCell id="63" value="Popis" style="text;strokeColor=none;fillColor=none;align=left;verticalAlign=top;spacingLeft=4;spacingRight=4;overflow=hidden;rotatable=0;points=[[0,0.5],[1,0.5]];portConstraint=eastwest;" parent="60" vertex="1">
                    <mxGeometry y="104" width="200" height="26" as="geometry"/>
                </mxCell>
                <mxCell id="102" style="edgeStyle=none;html=1;endArrow=none;endFill=0;endSize=17;" parent="1" target="60" edge="1">
                    <mxGeometry relative="1" as="geometry"/>
                </mxCell>
                <mxCell id="108" style="edgeStyle=none;html=1;endArrow=none;endFill=0;endSize=17;" parent="1" target="60" edge="1">
                    <mxGeometry relative="1" as="geometry"/>
                </mxCell>
                <mxCell id="107" style="edgeStyle=none;html=1;endArrow=none;endFill=0;endSize=17;" parent="1" target="60" edge="1">
                    <mxGeometry relative="1" as="geometry"/>
                </mxCell>
                <mxCell id="114" style="edgeStyle=none;html=1;" parent="1" target="60" edge="1">
                    <mxGeometry relative="1" as="geometry"/>
                </mxCell>
                <mxCell id="115" value="Druh zaznamu" style="swimlane;fontStyle=0;childLayout=stackLayout;horizontal=1;startSize=26;horizontalStack=0;resizeParent=1;resizeParentMax=0;resizeLast=0;collapsible=1;marginBottom=0;" parent="1" vertex="1">
                    <mxGeometry x="-205" y="251" width="200" height="78" as="geometry">
                        <mxRectangle x="30" y="310" width="200" height="26" as="alternateBounds"/>
                    </mxGeometry>
                </mxCell>
                <mxCell id="116" value="&lt;&lt;PK&gt;&gt;  Nazev" style="text;strokeColor=none;fillColor=none;align=left;verticalAlign=top;spacingLeft=4;spacingRight=4;overflow=hidden;rotatable=0;points=[[0,0.5],[1,0.5]];portConstraint=eastwest;" parent="115" vertex="1">
                    <mxGeometry y="26" width="200" height="26" as="geometry"/>
                </mxCell>
                <mxCell id="118" value="Popis" style="text;strokeColor=none;fillColor=none;align=left;verticalAlign=top;spacingLeft=4;spacingRight=4;overflow=hidden;rotatable=0;points=[[0,0.5],[1,0.5]];portConstraint=eastwest;" parent="115" vertex="1">
                    <mxGeometry y="52" width="200" height="26" as="geometry"/>
                </mxCell>
                <mxCell id="134" value="Opravnenia" style="swimlane;fontStyle=0;childLayout=stackLayout;horizontal=1;startSize=26;horizontalStack=0;resizeParent=1;resizeParentMax=0;resizeLast=0;collapsible=1;marginBottom=0;" parent="1" vertex="1">
                    <mxGeometry x="-205" y="481" width="200" height="52" as="geometry">
                        <mxRectangle x="30" y="310" width="200" height="26" as="alternateBounds"/>
                    </mxGeometry>
                </mxCell>
                <mxCell id="138" value="Akcia" style="text;strokeColor=none;fillColor=none;align=left;verticalAlign=top;spacingLeft=4;spacingRight=4;overflow=hidden;rotatable=0;points=[[0,0.5],[1,0.5]];portConstraint=eastwest;" parent="134" vertex="1">
                    <mxGeometry y="26" width="200" height="26" as="geometry"/>
                </mxCell>
                <mxCell id="139" value="Rola" style="swimlane;fontStyle=0;childLayout=stackLayout;horizontal=1;startSize=26;horizontalStack=0;resizeParent=1;resizeParentMax=0;resizeLast=0;collapsible=1;marginBottom=0;" parent="1" vertex="1">
                    <mxGeometry x="-205" y="608" width="200" height="52" as="geometry">
                        <mxRectangle x="30" y="310" width="200" height="26" as="alternateBounds"/>
                    </mxGeometry>
                </mxCell>
                <mxCell id="140" value="Nazov" style="text;strokeColor=none;fillColor=none;align=left;verticalAlign=top;spacingLeft=4;spacingRight=4;overflow=hidden;rotatable=0;points=[[0,0.5],[1,0.5]];portConstraint=eastwest;" parent="139" vertex="1">
                    <mxGeometry y="26" width="200" height="26" as="geometry"/>
                </mxCell>
                <mxCell id="186" style="edgeStyle=none;html=1;entryX=0;entryY=0.5;entryDx=0;entryDy=0;endArrow=open;endFill=0;startSize=15;endSize=8;" parent="1" source="168" target="185" edge="1">
                    <mxGeometry relative="1" as="geometry"/>
                </mxCell>
                <mxCell id="189" style="edgeStyle=none;html=1;entryX=0;entryY=0.5;entryDx=0;entryDy=0;endArrow=open;endFill=0;startSize=15;endSize=8;" parent="1" source="168" target="188" edge="1">
                    <mxGeometry relative="1" as="geometry"/>
                </mxCell>
                <mxCell id="168" value="Administrátor" style="shape=umlActor;verticalLabelPosition=bottom;verticalAlign=top;html=1;outlineConnect=0;" parent="1" vertex="1">
                    <mxGeometry x="180" y="858" width="30" height="60" as="geometry"/>
                </mxCell>
                <mxCell id="170" value="" style="edgeStyle=none;html=1;startArrow=block;startFill=0;endArrow=none;endFill=0;startSize=15;endSize=12;strokeWidth=1;" parent="1" target="168" edge="1">
                    <mxGeometry relative="1" as="geometry">
                        <mxPoint x="195" y="813" as="sourcePoint"/>
                    </mxGeometry>
                </mxCell>
                <mxCell id="178" style="edgeStyle=none;html=1;startArrow=none;startFill=0;endArrow=block;endFill=0;startSize=15;endSize=12;strokeWidth=1;" parent="1" edge="1">
                    <mxGeometry relative="1" as="geometry">
                        <mxPoint x="160" y="510" as="targetPoint"/>
                        <mxPoint x="160" y="760" as="sourcePoint"/>
                    </mxGeometry>
                </mxCell>
                <mxCell id="217" style="edgeStyle=none;html=1;entryX=0;entryY=0.5;entryDx=0;entryDy=0;startArrow=none;startFill=0;endArrow=open;endFill=0;startSize=15;endSize=8;strokeWidth=1;" parent="1" source="169" target="215" edge="1">
                    <mxGeometry relative="1" as="geometry"/>
                </mxCell>
                <mxCell id="219" style="edgeStyle=none;html=1;entryX=0;entryY=0.5;entryDx=0;entryDy=0;startArrow=none;startFill=0;endArrow=open;endFill=0;startSize=15;endSize=8;strokeWidth=1;" parent="1" source="169" target="211" edge="1">
                    <mxGeometry relative="1" as="geometry"/>
                </mxCell>
                <mxCell id="221" style="edgeStyle=none;html=1;entryX=0;entryY=0.5;entryDx=0;entryDy=0;startArrow=none;startFill=0;endArrow=open;endFill=0;startSize=15;endSize=8;strokeWidth=1;" parent="1" source="169" target="213" edge="1">
                    <mxGeometry relative="1" as="geometry"/>
                </mxCell>
                <mxCell id="222" style="edgeStyle=none;html=1;entryX=0;entryY=0.5;entryDx=0;entryDy=0;startArrow=none;startFill=0;endArrow=open;endFill=0;startSize=15;endSize=8;strokeWidth=1;" parent="1" source="169" target="218" edge="1">
                    <mxGeometry relative="1" as="geometry"/>
                </mxCell>
                <mxCell id="223" style="edgeStyle=none;html=1;entryX=0;entryY=0.5;entryDx=0;entryDy=0;startArrow=none;startFill=0;endArrow=open;endFill=0;startSize=15;endSize=8;strokeWidth=1;" parent="1" source="169" target="214" edge="1">
                    <mxGeometry relative="1" as="geometry"/>
                </mxCell>
                <mxCell id="169" value="Pečovatel" style="shape=umlActor;verticalLabelPosition=bottom;verticalAlign=top;html=1;outlineConnect=0;" parent="1" vertex="1">
                    <mxGeometry x="180" y="723" width="30" height="60" as="geometry"/>
                </mxCell>
                <mxCell id="179" style="edgeStyle=none;html=1;startArrow=none;startFill=0;endArrow=block;endFill=0;startSize=15;endSize=12;strokeWidth=1;" parent="1" source="174" edge="1">
                    <mxGeometry relative="1" as="geometry">
                        <mxPoint x="195" y="510" as="targetPoint"/>
                    </mxGeometry>
                </mxCell>
                <mxCell id="209" style="edgeStyle=none;html=1;entryX=0;entryY=0.5;entryDx=0;entryDy=0;startArrow=none;startFill=0;endArrow=open;endFill=0;startSize=15;endSize=8;strokeWidth=1;" parent="1" source="174" target="206" edge="1">
                    <mxGeometry relative="1" as="geometry"/>
                </mxCell>
                <mxCell id="210" style="edgeStyle=none;html=1;entryX=0;entryY=0.5;entryDx=0;entryDy=0;startArrow=none;startFill=0;endArrow=open;endFill=0;startSize=15;endSize=8;strokeWidth=1;" parent="1" source="174" target="208" edge="1">
                    <mxGeometry relative="1" as="geometry"/>
                </mxCell>
                <mxCell id="229" style="edgeStyle=none;html=1;entryX=0;entryY=0.5;entryDx=0;entryDy=0;" parent="1" source="174" target="228" edge="1">
                    <mxGeometry relative="1" as="geometry"/>
                </mxCell>
                <mxCell id="231" style="edgeStyle=none;html=1;entryX=0;entryY=0.5;entryDx=0;entryDy=0;" parent="1" source="174" target="230" edge="1">
                    <mxGeometry relative="1" as="geometry"/>
                </mxCell>
                <mxCell id="174" value="Veterinář" style="shape=umlActor;verticalLabelPosition=bottom;verticalAlign=top;html=1;outlineConnect=0;" parent="1" vertex="1">
                    <mxGeometry x="180" y="550" width="30" height="60" as="geometry"/>
                </mxCell>
                <mxCell id="180" style="edgeStyle=none;html=1;startArrow=none;startFill=0;endArrow=block;endFill=0;startSize=15;endSize=12;strokeWidth=1;" parent="1" source="175" edge="1">
                    <mxGeometry relative="1" as="geometry">
                        <mxPoint x="195" y="370" as="targetPoint"/>
                    </mxGeometry>
                </mxCell>
                <mxCell id="204" style="edgeStyle=none;html=1;entryX=0;entryY=0.5;entryDx=0;entryDy=0;startArrow=none;startFill=0;endArrow=open;endFill=0;startSize=15;endSize=8;strokeWidth=1;" parent="1" source="175" target="196" edge="1">
                    <mxGeometry relative="1" as="geometry"/>
                </mxCell>
                <mxCell id="205" style="edgeStyle=none;html=1;entryX=0;entryY=0.5;entryDx=0;entryDy=0;startArrow=none;startFill=0;endArrow=open;endFill=0;startSize=15;endSize=8;strokeWidth=1;" parent="1" source="175" target="203" edge="1">
                    <mxGeometry relative="1" as="geometry"/>
                </mxCell>
                <mxCell id="175" value="Dobrovolník" style="shape=umlActor;verticalLabelPosition=bottom;verticalAlign=top;html=1;outlineConnect=0;" parent="1" vertex="1">
                    <mxGeometry x="180" y="420" width="30" height="60" as="geometry"/>
                </mxCell>
                <mxCell id="183" style="edgeStyle=none;html=1;entryX=0;entryY=0.5;entryDx=0;entryDy=0;startArrow=none;startFill=0;endArrow=open;endFill=0;startSize=15;endSize=8;strokeWidth=1;" parent="1" source="176" target="181" edge="1">
                    <mxGeometry relative="1" as="geometry"/>
                </mxCell>
                <mxCell id="184" style="edgeStyle=none;html=1;entryX=0;entryY=0.5;entryDx=0;entryDy=0;startArrow=none;startFill=0;endArrow=open;endFill=0;startSize=15;endSize=8;strokeWidth=1;" parent="1" source="176" target="182" edge="1">
                    <mxGeometry relative="1" as="geometry"/>
                </mxCell>
                <mxCell id="227" style="edgeStyle=none;html=1;entryX=0;entryY=0.5;entryDx=0;entryDy=0;" parent="1" source="176" target="226" edge="1">
                    <mxGeometry relative="1" as="geometry"/>
                </mxCell>
                <mxCell id="234" style="edgeStyle=none;html=1;entryX=0.5;entryY=1;entryDx=0;entryDy=0;" parent="1" source="176" target="233" edge="1">
                    <mxGeometry relative="1" as="geometry"/>
                </mxCell>
                <mxCell id="176" value="Nereg. Uživatel" style="shape=umlActor;verticalLabelPosition=bottom;verticalAlign=top;html=1;outlineConnect=0;" parent="1" vertex="1">
                    <mxGeometry x="180" y="150" width="30" height="60" as="geometry"/>
                </mxCell>
                <mxCell id="181" value="prohlíží zvířata" style="ellipse;whiteSpace=wrap;html=1;" parent="1" vertex="1">
                    <mxGeometry x="362.5" y="20" width="70" height="40" as="geometry"/>
                </mxCell>
                <mxCell id="182" value="prohlíží informace o útulku" style="ellipse;whiteSpace=wrap;html=1;" parent="1" vertex="1">
                    <mxGeometry x="360" y="130" width="80" height="60" as="geometry"/>
                </mxCell>
                <mxCell id="185" value="spravuje uživatele" style="ellipse;whiteSpace=wrap;html=1;" parent="1" vertex="1">
                    <mxGeometry x="360" y="910" width="80" height="60" as="geometry"/>
                </mxCell>
                <mxCell id="188" value="vytváří&amp;nbsp; pečovatele a veterináře" style="ellipse;whiteSpace=wrap;html=1;" parent="1" vertex="1">
                    <mxGeometry x="360" y="977" width="80" height="60" as="geometry"/>
                </mxCell>
                <mxCell id="192" style="edgeStyle=none;html=1;startArrow=none;startFill=0;endArrow=block;endFill=0;startSize=15;endSize=12;strokeWidth=1;" parent="1" source="191" edge="1">
                    <mxGeometry relative="1" as="geometry">
                        <mxPoint x="195" y="239.9999999999999" as="targetPoint"/>
                    </mxGeometry>
                </mxCell>
                <mxCell id="195" style="edgeStyle=none;html=1;entryX=0;entryY=0.5;entryDx=0;entryDy=0;startArrow=none;startFill=0;endArrow=open;endFill=0;startSize=15;endSize=8;strokeWidth=1;" parent="1" source="191" target="193" edge="1">
                    <mxGeometry relative="1" as="geometry"/>
                </mxCell>
                <mxCell id="225" style="edgeStyle=none;html=1;entryX=0;entryY=0.5;entryDx=0;entryDy=0;" parent="1" source="191" target="224" edge="1">
                    <mxGeometry relative="1" as="geometry"/>
                </mxCell>
                <mxCell id="191" value="Reg. Uživatel" style="shape=umlActor;verticalLabelPosition=bottom;verticalAlign=top;html=1;outlineConnect=0;" parent="1" vertex="1">
                    <mxGeometry x="180" y="280" width="30" height="60" as="geometry"/>
                </mxCell>
                <mxCell id="193" value="prohlíží svůj profil" style="ellipse;whiteSpace=wrap;html=1;" parent="1" vertex="1">
                    <mxGeometry x="365" y="270" width="80" height="60" as="geometry"/>
                </mxCell>
                <mxCell id="196" value="rezervuje zvířata na venčení" style="ellipse;whiteSpace=wrap;html=1;" parent="1" vertex="1">
                    <mxGeometry x="365" y="340" width="80" height="60" as="geometry"/>
                </mxCell>
                <mxCell id="203" value="prohlíží historii venčení" style="ellipse;whiteSpace=wrap;html=1;" parent="1" vertex="1">
                    <mxGeometry x="365" y="404" width="80" height="60" as="geometry"/>
                </mxCell>
                <mxCell id="206" value="zobrazuje záznamy zvířete" style="ellipse;whiteSpace=wrap;html=1;" parent="1" vertex="1">
                    <mxGeometry x="360" y="470" width="80" height="60" as="geometry"/>
                </mxCell>
                <mxCell id="208" value="vyřizuje požadavky od pečovatele" style="ellipse;whiteSpace=wrap;html=1;" parent="1" vertex="1">
                    <mxGeometry x="360" y="540" width="80" height="60" as="geometry"/>
                </mxCell>
                <mxCell id="211" value="spravuje zvířata" style="ellipse;whiteSpace=wrap;html=1;" parent="1" vertex="1">
                    <mxGeometry x="362.5" y="660" width="80" height="60" as="geometry"/>
                </mxCell>
                <mxCell id="213" value="ověřuje dobrovolníky" style="ellipse;whiteSpace=wrap;html=1;" parent="1" vertex="1">
                    <mxGeometry x="360" y="783" width="80" height="60" as="geometry"/>
                </mxCell>
                <mxCell id="214" value="vytváří požadavky na veterináře" style="ellipse;whiteSpace=wrap;html=1;" parent="1" vertex="1">
                    <mxGeometry x="360" y="843" width="80" height="60" as="geometry"/>
                </mxCell>
                <mxCell id="215" value="schvaluje rezervace" style="ellipse;whiteSpace=wrap;html=1;" parent="1" vertex="1">
                    <mxGeometry x="472.5" y="683" width="80" height="60" as="geometry"/>
                </mxCell>
                <mxCell id="218" value="eviduje zapůjčení a vrácení" style="ellipse;whiteSpace=wrap;html=1;" parent="1" vertex="1">
                    <mxGeometry x="470" y="756" width="80" height="60" as="geometry"/>
                </mxCell>
                <mxCell id="224" value="čeká na ověření" style="ellipse;whiteSpace=wrap;html=1;" parent="1" vertex="1">
                    <mxGeometry x="367.5" y="200" width="75" height="50" as="geometry"/>
                </mxCell>
                <mxCell id="226" value="prohlíží detaily zvířat" style="ellipse;whiteSpace=wrap;html=1;" parent="1" vertex="1">
                    <mxGeometry x="357.5" y="70" width="90" height="50" as="geometry"/>
                </mxCell>
                <mxCell id="228" value="upravuje záznamy zvířete" style="ellipse;whiteSpace=wrap;html=1;" parent="1" vertex="1">
                    <mxGeometry x="460" y="490" width="80" height="60" as="geometry"/>
                </mxCell>
                <mxCell id="230" value="plánuje prohlídky" style="ellipse;whiteSpace=wrap;html=1;" parent="1" vertex="1">
                    <mxGeometry x="360" y="610" width="80" height="40" as="geometry"/>
                </mxCell>
                <mxCell id="232" style="edgeStyle=none;html=1;startArrow=none;startFill=0;endArrow=block;endFill=0;startSize=15;endSize=12;strokeWidth=1;" parent="1" edge="1">
                    <mxGeometry relative="1" as="geometry">
                        <mxPoint x="130" y="630" as="targetPoint"/>
                        <mxPoint x="130" y="880" as="sourcePoint"/>
                    </mxGeometry>
                </mxCell>
                <mxCell id="233" value="registruje se" style="ellipse;whiteSpace=wrap;html=1;" parent="1" vertex="1">
                    <mxGeometry x="230" y="10" width="70" height="40" as="geometry"/>
                </mxCell>
                <mxCell id="235" value="Prochadzka" style="swimlane;fontStyle=0;childLayout=stackLayout;horizontal=1;startSize=26;horizontalStack=0;resizeParent=1;resizeParentMax=0;resizeLast=0;collapsible=1;marginBottom=0;" parent="1" vertex="1">
                    <mxGeometry x="-845" y="81" width="200" height="78" as="geometry">
                        <mxRectangle x="30" y="310" width="200" height="26" as="alternateBounds"/>
                    </mxGeometry>
                </mxCell>
                <mxCell id="239" value="Potvrdena" style="text;strokeColor=none;fillColor=none;align=left;verticalAlign=top;spacingLeft=4;spacingRight=4;overflow=hidden;rotatable=0;points=[[0,0.5],[1,0.5]];portConstraint=eastwest;" parent="235" vertex="1">
                    <mxGeometry y="26" width="200" height="26" as="geometry"/>
                </mxCell>
                <mxCell id="240" value="Ukoncena" style="text;strokeColor=none;fillColor=none;align=left;verticalAlign=top;spacingLeft=4;spacingRight=4;overflow=hidden;rotatable=0;points=[[0,0.5],[1,0.5]];portConstraint=eastwest;" parent="235" vertex="1">
                    <mxGeometry y="52" width="200" height="26" as="geometry"/>
                </mxCell>
                <mxCell id="241" value="Zadost o prohlidku " style="swimlane;fontStyle=0;childLayout=stackLayout;horizontal=1;startSize=26;horizontalStack=0;resizeParent=1;resizeParentMax=0;resizeLast=0;collapsible=1;marginBottom=0;" parent="1" vertex="1">
                    <mxGeometry x="-525" y="81" width="200" height="78" as="geometry">
                        <mxRectangle x="30" y="310" width="200" height="26" as="alternateBounds"/>
                    </mxGeometry>
                </mxCell>
                <mxCell id="242" value="Prijata" style="text;strokeColor=none;fillColor=none;align=left;verticalAlign=top;spacingLeft=4;spacingRight=4;overflow=hidden;rotatable=0;points=[[0,0.5],[1,0.5]];portConstraint=eastwest;" parent="241" vertex="1">
                    <mxGeometry y="26" width="200" height="26" as="geometry"/>
                </mxCell>
                <mxCell id="243" value="Zadost" style="text;strokeColor=none;fillColor=none;align=left;verticalAlign=top;spacingLeft=4;spacingRight=4;overflow=hidden;rotatable=0;points=[[0,0.5],[1,0.5]];portConstraint=eastwest;" parent="241" vertex="1">
                    <mxGeometry y="52" width="200" height="26" as="geometry"/>
                </mxCell>
                <mxCell id="244" value="Zdravotny zaznam" style="swimlane;fontStyle=0;childLayout=stackLayout;horizontal=1;startSize=26;horizontalStack=0;resizeParent=1;resizeParentMax=0;resizeLast=0;collapsible=1;marginBottom=0;" parent="1" vertex="1">
                    <mxGeometry x="-205" y="81" width="200" height="52" as="geometry">
                        <mxRectangle x="30" y="310" width="200" height="26" as="alternateBounds"/>
                    </mxGeometry>
                </mxCell>
                <mxCell id="246" value="Popis" style="text;strokeColor=none;fillColor=none;align=left;verticalAlign=top;spacingLeft=4;spacingRight=4;overflow=hidden;rotatable=0;points=[[0,0.5],[1,0.5]];portConstraint=eastwest;" parent="244" vertex="1">
                    <mxGeometry y="26" width="200" height="26" as="geometry"/>
                </mxCell>
                <mxCell id="249" style="edgeStyle=none;html=1;endArrow=block;endFill=0;jumpSize=6;endSize=27;" parent="1" source="60" target="241" edge="1">
                    <mxGeometry relative="1" as="geometry"/>
                </mxCell>
                <mxCell id="250" style="edgeStyle=none;html=1;endArrow=block;endFill=0;jumpSize=6;endSize=27;" parent="1" source="60" target="235" edge="1">
                    <mxGeometry relative="1" as="geometry"/>
                </mxCell>
                <mxCell id="252" value="" style="endArrow=none;html=1;endSize=6;jumpSize=6;endFill=0;entryX=1;entryY=0.5;entryDx=0;entryDy=0;" parent="1" source="60" target="6" edge="1">
                    <mxGeometry relative="1" as="geometry">
                        <mxPoint x="205" y="478" as="sourcePoint"/>
                        <mxPoint x="-585" y="381" as="targetPoint"/>
                    </mxGeometry>
                </mxCell>
                <mxCell id="253" value="Zucastnuje" style="edgeLabel;resizable=0;html=1;align=center;verticalAlign=middle;" parent="252" connectable="0" vertex="1">
                    <mxGeometry relative="1" as="geometry"/>
                </mxCell>
                <mxCell id="254" value="N" style="edgeLabel;resizable=0;html=1;align=left;verticalAlign=bottom;" parent="252" connectable="0" vertex="1">
                    <mxGeometry x="-1" relative="1" as="geometry">
                        <mxPoint x="-17" as="offset"/>
                    </mxGeometry>
                </mxCell>
                <mxCell id="255" value="1" style="edgeLabel;resizable=0;html=1;align=right;verticalAlign=bottom;" parent="252" connectable="0" vertex="1">
                    <mxGeometry x="1" relative="1" as="geometry">
                        <mxPoint x="15" as="offset"/>
                    </mxGeometry>
                </mxCell>
                <mxCell id="268" value="" style="endArrow=none;html=1;endSize=6;jumpSize=6;endFill=0;" parent="1" source="60" target="43" edge="1">
                    <mxGeometry relative="1" as="geometry">
                        <mxPoint x="205" y="478" as="sourcePoint"/>
                        <mxPoint x="-585" y="381" as="targetPoint"/>
                    </mxGeometry>
                </mxCell>
                <mxCell id="269" value="Vykonava" style="edgeLabel;resizable=0;html=1;align=center;verticalAlign=middle;" parent="268" connectable="0" vertex="1">
                    <mxGeometry relative="1" as="geometry"/>
                </mxCell>
                <mxCell id="270" value="N" style="edgeLabel;resizable=0;html=1;align=left;verticalAlign=bottom;" parent="268" connectable="0" vertex="1">
                    <mxGeometry x="-1" relative="1" as="geometry">
                        <mxPoint x="2" y="19" as="offset"/>
                    </mxGeometry>
                </mxCell>
                <mxCell id="271" value="1" style="edgeLabel;resizable=0;html=1;align=right;verticalAlign=bottom;" parent="268" connectable="0" vertex="1">
                    <mxGeometry x="1" relative="1" as="geometry">
                        <mxPoint x="13" as="offset"/>
                    </mxGeometry>
                </mxCell>
                <mxCell id="278" value="" style="endArrow=none;html=1;endSize=6;jumpSize=6;endFill=0;" parent="1" source="139" target="134" edge="1">
                    <mxGeometry relative="1" as="geometry">
                        <mxPoint x="-245" y="561" as="sourcePoint"/>
                        <mxPoint x="-185" y="531" as="targetPoint"/>
                    </mxGeometry>
                </mxCell>
                <mxCell id="279" value="Opravnuje" style="edgeLabel;resizable=0;html=1;align=center;verticalAlign=middle;" parent="278" connectable="0" vertex="1">
                    <mxGeometry relative="1" as="geometry"/>
                </mxCell>
                <mxCell id="280" value="1" style="edgeLabel;resizable=0;html=1;align=left;verticalAlign=bottom;" parent="278" connectable="0" vertex="1">
                    <mxGeometry x="-1" relative="1" as="geometry">
                        <mxPoint x="7" y="-3" as="offset"/>
                    </mxGeometry>
                </mxCell>
                <mxCell id="281" value="N" style="edgeLabel;resizable=0;html=1;align=right;verticalAlign=bottom;" parent="278" connectable="0" vertex="1">
                    <mxGeometry x="1" relative="1" as="geometry">
                        <mxPoint x="17" y="21" as="offset"/>
                    </mxGeometry>
                </mxCell>
                <mxCell id="283" value="" style="endArrow=none;html=1;endSize=6;jumpSize=6;endFill=0;" parent="1" source="244" target="115" edge="1">
                    <mxGeometry relative="1" as="geometry">
                        <mxPoint x="-15" y="141" as="sourcePoint"/>
                        <mxPoint x="-135" y="316" as="targetPoint"/>
                    </mxGeometry>
                </mxCell>
                <mxCell id="284" value="Je druhu" style="edgeLabel;resizable=0;html=1;align=center;verticalAlign=middle;" parent="283" connectable="0" vertex="1">
                    <mxGeometry relative="1" as="geometry"/>
                </mxCell>
                <mxCell id="285" value="N" style="edgeLabel;resizable=0;html=1;align=left;verticalAlign=bottom;" parent="283" connectable="0" vertex="1">
                    <mxGeometry x="-1" relative="1" as="geometry">
                        <mxPoint x="6" y="21" as="offset"/>
                    </mxGeometry>
                </mxCell>
                <mxCell id="286" value="1" style="edgeLabel;resizable=0;html=1;align=right;verticalAlign=bottom;" parent="283" connectable="0" vertex="1">
                    <mxGeometry x="1" relative="1" as="geometry">
                        <mxPoint x="13" as="offset"/>
                    </mxGeometry>
                </mxCell>
                <mxCell id="289" value="" style="endArrow=none;html=1;endSize=6;jumpSize=6;endFill=0;" parent="1" source="139" target="43" edge="1">
                    <mxGeometry relative="1" as="geometry">
                        <mxPoint x="-245" y="561" as="sourcePoint"/>
                        <mxPoint x="-185" y="531" as="targetPoint"/>
                    </mxGeometry>
                </mxCell>
                <mxCell id="290" value="Ma rolu" style="edgeLabel;resizable=0;html=1;align=center;verticalAlign=middle;" parent="289" connectable="0" vertex="1">
                    <mxGeometry relative="1" as="geometry"/>
                </mxCell>
                <mxCell id="291" value="1" style="edgeLabel;resizable=0;html=1;align=left;verticalAlign=bottom;" parent="289" connectable="0" vertex="1">
                    <mxGeometry x="-1" relative="1" as="geometry">
                        <mxPoint x="-17" y="-3" as="offset"/>
                    </mxGeometry>
                </mxCell>
                <mxCell id="292" value="N" style="edgeLabel;resizable=0;html=1;align=right;verticalAlign=bottom;" parent="289" connectable="0" vertex="1">
                    <mxGeometry x="1" relative="1" as="geometry">
                        <mxPoint x="19" y="-2" as="offset"/>
                    </mxGeometry>
                </mxCell>
            </root>
        </mxGraphModel>
    </diagram>
</mxfile>